<svg width="24" height="24" viewBox="0 0 24 24" fill="none" xmlns="http://www.w3.org/2000/svg">
<path d="M8.07008 3V5.51375M15.9299 3V5.51375M3.83327 15.2485C3.38891 13.3097 3.38891 11.292 3.83327 9.35323C4.44858 6.66865 6.49673 4.57251 9.11985 3.94279C11.0142 3.48802 12.9858 3.48802 14.8801 3.94279C17.5033 4.57251 19.5514 6.66865 20.1667 9.35323C20.6111 11.292 20.6111 13.3097 20.1667 15.2485C19.5514 17.9331 17.5033 20.0292 14.8801 20.6589C12.9858 21.1137 11.0142 21.1137 9.11986 20.6589C6.49673 20.0292 4.44858 17.9331 3.83327 15.2485Z" stroke="#A35BFF" stroke-width="1.5" stroke-linecap="round"/>
<path d="M3.83327 15.2485C3.38891 13.3097 3.38891 11.292 3.83327 9.35323C4.44858 6.66865 6.49673 4.57251 9.11985 3.94279C11.0142 3.48802 12.9858 3.48802 14.8801 3.94279C17.5033 4.57251 19.5514 6.66865 20.1667 9.35323C20.6111 11.292 20.6111 13.3097 20.1667 15.2485C19.5514 17.9331 17.5033 20.0292 14.8801 20.6589M8.07008 3V5.51375M15.9299 3V5.51375" stroke="#363853" stroke-width="1.5" stroke-linecap="round"/>
<path d="M7.98809 10.2877C7.6736 10.0181 7.20012 10.0546 6.93056 10.369C6.66099 10.6835 6.69741 11.157 7.01191 11.4266L7.98809 10.2877ZM8.5 11.7143L8.01191 12.2837C8.29277 12.5245 8.70723 12.5245 8.98809 12.2837L8.5 11.7143ZM10.9881 10.5694C11.3026 10.2999 11.339 9.8264 11.0694 9.51191C10.7999 9.19741 10.3264 9.16099 10.0119 9.43056L10.9881 10.5694ZM7.98809 14.5734C7.6736 14.3038 7.20012 14.3403 6.93056 14.6548C6.66099 14.9693 6.69741 15.4427 7.01191 15.7123L7.98809 14.5734ZM8.5 16L8.01191 16.5694C8.29277 16.8102 8.70723 16.8102 8.98809 16.5694L8.5 16ZM10.9881 14.8552C11.3026 14.5856 11.339 14.1121 11.0694 13.7976C10.7999 13.4831 10.3264 13.4467 10.0119 13.7163L10.9881 14.8552ZM13 10.5357C12.5858 10.5357 12.25 10.8715 12.25 11.2857C12.25 11.6999 12.5858 12.0357 13 12.0357V10.5357ZM16.5 12.0357C16.9142 12.0357 17.25 11.6999 17.25 11.2857C17.25 10.8715 16.9142 10.5357 16.5 10.5357V12.0357ZM13 14.8214C12.5858 14.8214 12.25 15.1572 12.25 15.5714C12.25 15.9856 12.5858 16.3214 13 16.3214V14.8214ZM16.5 16.3214C16.9142 16.3214 17.25 15.9856 17.25 15.5714C17.25 15.1572 16.9142 14.8214 16.5 14.8214V16.3214ZM7.01191 11.4266L8.01191 12.2837L8.98809 11.1448L7.98809 10.2877L7.01191 11.4266ZM8.98809 12.2837L10.9881 10.5694L10.0119 9.43056L8.01191 11.1448L8.98809 12.2837ZM7.01191 15.7123L8.01191 16.5694L8.98809 15.4306L7.98809 14.5734L7.01191 15.7123ZM8.98809 16.5694L10.9881 14.8552L10.0119 13.7163L8.01191 15.4306L8.98809 16.5694ZM13 12.0357H16.5V10.5357H13V12.0357ZM13 16.3214H16.5V14.8214H13V16.3214Z" fill="#A35BFF"/>
</svg>
