<svg width="24" height="24" viewBox="0 0 24 24" fill="none" xmlns="http://www.w3.org/2000/svg">
<path d="M12 3V4.00474M9.00909 17.9034C10.9968 18.1269 13.0032 18.1269 14.9909 17.9034C14.9768 18.0967 14.9465 18.2887 14.9001 18.4772L14.8182 18.8106C14.5614 19.855 13.7455 20.6678 12.7039 20.917C12.2411 21.0277 11.7589 21.0277 11.2961 20.917C10.2545 20.6678 9.43862 19.855 9.18181 18.8106L9.09985 18.4772C9.0535 18.2887 9.02316 18.0967 9.00909 17.9034Z" stroke="#A35BFF" stroke-width="1.5" stroke-linecap="round"/>
<path d="M10.1584 4.30225C8.15001 4.95327 6.58212 6.58677 6.0278 8.63262L5.4375 10.8112L4.9702 12.9275C4.82626 13.5794 4.63043 14.2498 4.52719 14.9094C4.50929 15.0238 4.5 15.141 4.5 15.2604C4.5 16.3266 5.24755 17.2453 6.28759 17.4572L6.65518 17.5321C10.1825 18.2507 13.8175 18.2507 17.3448 17.5321L17.7124 17.4572C18.7525 17.2453 19.5 16.3266 19.5 15.2604C19.5 15.141 19.4907 15.0238 19.4728 14.9094C19.3696 14.2498 19.1737 13.5794 19.0298 12.9275L18.5625 10.8112L17.9793 8.58838C17.45 6.57087 15.9398 4.95993 13.9671 4.3084C12.7349 3.90148 11.3927 3.90214 10.1584 4.30225Z" stroke="white" stroke-width="1.5" stroke-linecap="round"/>
</svg>
