<svg width="24" height="24" viewBox="0 0 24 24" fill="none" xmlns="http://www.w3.org/2000/svg">
<path d="M3.35288 8.95043C4.00437 6.17301 6.17301 4.00437 8.95043 3.35287C10.9563 2.88237 13.0437 2.88237 15.0496 3.35287C17.827 4.00437 19.9956 6.17301 20.6471 8.95043C21.1176 10.9563 21.1176 13.0437 20.6471 15.0496C19.9956 17.827 17.827 19.9956 15.0496 20.6471C13.0437 21.1176 10.9563 21.1176 8.95044 20.6471C6.17301 19.9956 4.00437 17.827 3.35288 15.0496C2.88237 13.0437 2.88237 10.9563 3.35288 8.95043Z" stroke="#A35BFF" stroke-width="1.5"/>
<path d="M3.35288 8.95043C2.88237 10.9563 2.88237 13.0437 3.35288 15.0496C4.00437 17.827 6.17301 19.9956 8.95044 20.6471C10.9563 21.1176 13.0437 21.1176 15.0496 20.6471C17.827 19.9956 19.9956 17.827 20.6471 15.0496C21.1176 13.0437 21.1176 10.9563 20.6471 8.95043C19.9956 6.17301 17.827 4.00437 15.0496 3.35287" stroke="white" stroke-width="1.5" stroke-linecap="round"/>
<path d="M7.84918 8.86907C7.55628 8.57618 7.08141 8.57618 6.78852 8.86907C6.49562 9.16197 6.49562 9.63684 6.78852 9.92973L7.84918 8.86907ZM8.35912 10.4397L7.82879 10.97C7.96944 11.1107 8.16021 11.1897 8.35912 11.1897C8.55803 11.1897 8.7488 11.1107 8.88945 10.97L8.35912 10.4397ZM10.97 8.88946C11.2629 8.59657 11.2629 8.12169 10.97 7.8288C10.6771 7.53591 10.2022 7.53591 9.90934 7.8288L10.97 8.88946ZM13.0403 9.16954C12.6261 9.16954 12.2903 9.50533 12.2903 9.91954C12.2903 10.3338 12.6261 10.6695 13.0403 10.6695V9.16954ZM16.6813 10.6695C17.0955 10.6695 17.4313 10.3338 17.4313 9.91954C17.4313 9.50533 17.0955 9.16954 16.6813 9.16954V10.6695ZM7.84918 14.0704C7.55628 13.7775 7.08141 13.7775 6.78852 14.0704C6.49562 14.3633 6.49562 14.8382 6.78852 15.1311L7.84918 14.0704ZM8.35912 15.641L7.82879 16.1714C8.12168 16.4643 8.59656 16.4643 8.88945 16.1714L8.35912 15.641ZM10.97 14.0908C11.2629 13.7979 11.2629 13.3231 10.97 13.0302C10.6771 12.7373 10.2022 12.7373 9.90934 13.0302L10.97 14.0908ZM13.0403 14.3709C12.6261 14.3709 12.2903 14.7067 12.2903 15.1209C12.2903 15.5351 12.6261 15.8709 13.0403 15.8709V14.3709ZM16.6813 15.8709C17.0955 15.8709 17.4313 15.5351 17.4313 15.1209C17.4313 14.7067 17.0955 14.3709 16.6813 14.3709V15.8709ZM6.78852 9.92973L7.82879 10.97L8.88945 9.90935L7.84918 8.86907L6.78852 9.92973ZM8.88945 10.97L10.97 8.88946L9.90934 7.8288L7.82879 9.90935L8.88945 10.97ZM13.0403 10.6695H16.6813V9.16954H13.0403V10.6695ZM6.78852 15.1311L7.82879 16.1714L8.88945 15.1107L7.84918 14.0704L6.78852 15.1311ZM8.88945 16.1714L10.97 14.0908L9.90934 13.0302L7.82879 15.1107L8.88945 16.1714ZM13.0403 15.8709H16.6813V14.3709H13.0403V15.8709Z" fill="#A35BFF"/>
</svg>
