<svg width="24" height="24" viewBox="0 0 24 24" fill="none" xmlns="http://www.w3.org/2000/svg">
<path d="M3.77571 9.22642C4.45212 6.28371 6.65677 3.99738 9.46648 3.32481L9.68953 3.27141C11.2013 2.90953 12.7712 2.90953 14.283 3.27141L14.6641 3.36264C17.377 4.01204 19.5057 6.21958 20.1588 9.06088L20.2476 9.44741C20.5841 10.9113 20.5841 12.4382 20.2476 13.9021C19.5701 16.8499 17.0589 18.9268 14.1721 18.9268H13.1107C12.7622 18.9268 12.4467 19.1515 12.3142 19.4902C11.8329 20.7208 10.489 21.3248 9.31593 20.8233L9.19777 20.7728C6.48688 19.6138 4.46607 17.1265 3.77909 14.1378C3.40923 12.5287 3.40585 10.8355 3.77571 9.22642Z" stroke="#363853" stroke-width="1.5" stroke-linecap="round"/>
<path d="M8.69629 9.05786H14.728M8.69629 12.514H12.5346" stroke="#0095FF" stroke-width="1.5" stroke-linecap="round"/>
</svg>
