<svg width="24" height="24" viewBox="0 0 24 24" fill="none" xmlns="http://www.w3.org/2000/svg">
<path d="M11.9999 3V4.00474M9.00903 17.9034C10.9967 18.1269 13.0031 18.1269 14.9908 17.9034C14.9768 18.0967 14.9464 18.2887 14.9001 18.4772L14.8181 18.8106C14.5613 19.855 13.7454 20.6678 12.7038 20.917C12.241 21.0277 11.7588 21.0277 11.2961 20.917C10.2544 20.6678 9.43856 19.855 9.18175 18.8106L9.09978 18.4772C9.05343 18.2887 9.0231 18.0967 9.00903 17.9034Z" stroke="#0095FF" stroke-width="1.5" stroke-linecap="round"/>
<path d="M10.1584 4.30225C8.15001 4.95327 6.58212 6.58677 6.0278 8.63262L5.4375 10.8112L4.9702 12.9275C4.82626 13.5794 4.63043 14.2498 4.52719 14.9094C4.50929 15.0238 4.5 15.141 4.5 15.2604C4.5 16.3266 5.24755 17.2453 6.28759 17.4572L6.65518 17.5321C10.1825 18.2507 13.8175 18.2507 17.3448 17.5321L17.7124 17.4572C18.7525 17.2453 19.5 16.3266 19.5 15.2604C19.5 15.141 19.4907 15.0238 19.4728 14.9094C19.3696 14.2498 19.1737 13.5794 19.0298 12.9275L18.5625 10.8112L17.9793 8.58838C17.45 6.57087 15.9398 4.95993 13.9671 4.3084C12.7349 3.90148 11.3927 3.90214 10.1584 4.30225Z" stroke="#363853" stroke-width="1.5" stroke-linecap="round"/>
</svg>
