<svg width="24" height="24" viewBox="0 0 24 24" fill="none" xmlns="http://www.w3.org/2000/svg">
<path d="M20.4697 21.5303C20.7626 21.8232 21.2375 21.8232 21.5304 21.5303C21.8233 21.2374 21.8233 20.7625 21.5304 20.4696L20.4697 21.5303ZM16.8049 17.8654L20.4697 21.5303L21.5304 20.4696L17.8655 16.8048L16.8049 17.8654Z" fill="#0095FF"/>
<path d="M3.31573 8.324C3.89864 5.83897 5.83897 3.89864 8.324 3.31573C10.1187 2.89476 11.9864 2.89476 13.781 3.31573C16.2661 3.89864 18.2064 5.83897 18.7893 8.324C19.2103 10.1187 19.2103 11.9864 18.7893 13.781C18.2064 16.2661 16.2661 18.2064 13.781 18.7893C11.9864 19.2103 10.1187 19.2103 8.324 18.7893C5.83897 18.2064 3.89864 16.2661 3.31573 13.7811C2.89476 11.9864 2.89476 10.1187 3.31573 8.324Z" stroke="#0095FF" stroke-width="1.5" stroke-linecap="round"/>
<path d="M3.31573 8.324C2.89476 10.1187 2.89476 11.9864 3.31573 13.7811C3.89864 16.2661 5.83897 18.2064 8.324 18.7893C10.1187 19.2103 11.9864 19.2103 13.781 18.7893C16.2661 18.2064 18.2064 16.2661 18.7893 13.781C19.2103 11.9864 19.2103 10.1187 18.7893 8.324C18.2064 5.83897 16.2661 3.89864 13.781 3.31573C11.9864 2.89476 10.1187 2.89476 8.324 3.31573" stroke="#363853" stroke-width="1.5" stroke-linecap="round"/>
</svg>
