<svg width="24" height="24" viewBox="0 0 24 24" fill="none" xmlns="http://www.w3.org/2000/svg">
<path d="M5.5 9H3.5" stroke="#0095FF" stroke-width="1.5" stroke-linecap="round"/>
<path d="M5 15L4 15" stroke="#0095FF" stroke-width="1.5" stroke-linecap="round"/>
<path d="M4 12H2" stroke="#0095FF" stroke-width="1.5" stroke-linecap="round"/>
<path d="M12.0409 12.7649C12.4551 12.7649 12.7909 12.4291 12.7909 12.0149C12.7909 11.6007 12.4551 11.2649 12.0409 11.2649V12.7649ZM9.26797 12.7649H12.0409V11.2649H9.26797V12.7649Z" fill="#0095FF"/>
<path d="M20.5392 9.47684L11.8369 4.80857C9.74273 3.6852 7.41866 5.81469 8.13127 8.2039L9.18255 11.7286C9.23827 11.9154 9.23817 12.1144 9.18225 12.3012L8.13677 15.7931C7.42185 18.181 9.74261 20.3131 11.8379 19.1934L20.5356 14.5453C22.4865 13.5027 22.4886 10.5226 20.5392 9.47684Z" stroke="#363853" stroke-width="1.5"/>
</svg>
