<svg width="24" height="24" viewBox="0 0 24 24" fill="none" xmlns="http://www.w3.org/2000/svg">
<path d="M15.3509 3L12.0003 6.17647L8.64973 3M8.66698 19.4118L7.55579 21M15.3342 19.4118L16.4454 21" stroke="#0095FF" stroke-width="1.5" stroke-linecap="round"/>
<path d="M4.80827 10.7083C5.33465 8.73286 6.98876 7.2113 9.07917 6.77964L9.57098 6.67809C11.1718 6.34754 12.8283 6.34754 14.429 6.67809L14.9208 6.77964C17.0112 7.2113 18.6654 8.73286 19.1917 10.7083C19.6028 12.2509 19.6028 13.8669 19.1917 15.4094C18.6654 17.3849 17.0112 18.9064 14.9208 19.3381L14.429 19.4396C12.8283 19.7702 11.1717 19.7702 9.57098 19.4396L9.07917 19.3381C6.98875 18.9064 5.33465 17.3849 4.80827 15.4094C4.39724 13.8669 4.39724 12.2509 4.80827 10.7083Z" stroke="#363853" stroke-width="1.5" stroke-linecap="round"/>
</svg>
