<svg width="24" height="24" viewBox="0 0 24 24" fill="none" xmlns="http://www.w3.org/2000/svg">
<path d="M3.88827 13.6276L4.6278 13.5028V13.5028L3.88827 13.6276ZM3.87982 13.5776L3.14028 13.7024L3.14028 13.7024L3.87982 13.5776ZM3.87982 11.052L4.61936 11.1769L4.61936 11.1769L3.87982 11.052ZM3.88827 11.002L3.14873 10.8772L3.14873 10.8772L3.88827 11.002ZM11.6998 6.75269L12.218 7.29486L12.218 7.29486L11.6998 6.75269ZM12.3085 6.17086L11.7903 5.62869L11.7903 5.62869L12.3085 6.17086ZM6.80005 7.71564L6.56558 7.00323H6.56558L6.80005 7.71564ZM6.56525 17.6263C6.95864 17.756 7.38267 17.5422 7.51235 17.1488C7.64202 16.7554 7.42824 16.3314 7.03485 16.2017L6.56525 17.6263ZM19.7413 5.03033C20.0342 4.73744 20.0342 4.26256 19.7413 3.96967C19.4484 3.67678 18.9735 3.67678 18.6807 3.96967L19.7413 5.03033ZM3.96966 18.6807C3.67676 18.9735 3.67676 19.4484 3.96965 19.7413C4.26255 20.0342 4.73742 20.0342 5.03031 19.7413L3.96966 18.6807ZM9.53929 8.02778H10.3688V6.52778H9.53929V8.02778ZM4.6278 13.5028L4.61936 13.4528L3.14028 13.7024L3.14873 13.7525L4.6278 13.5028ZM4.61936 11.1769L4.6278 11.1268L3.14873 10.8772L3.14028 10.9272L4.61936 11.1769ZM12.218 7.29486L12.8267 6.71303L11.7903 5.62869L11.1816 6.21052L12.218 7.29486ZM4.61936 13.4528C4.49209 12.6988 4.49209 11.9308 4.61936 11.1769L3.14028 10.9272C2.98512 11.8464 2.98512 12.7832 3.14028 13.7024L4.61936 13.4528ZM7.03452 8.42805C7.83906 8.16325 8.68586 8.02778 9.53929 8.02778V6.52778C8.5275 6.52778 7.52236 6.68833 6.56558 7.00323L7.03452 8.42805ZM7.03485 16.2017L7.03255 16.2009L6.56296 17.6255L6.56525 17.6263L7.03485 16.2017ZM7.03259 16.2009C5.74406 15.7761 4.83475 14.7288 4.6278 13.5028L3.14873 13.7525C3.45402 15.5611 4.77978 17.0376 6.56291 17.6255L7.03259 16.2009ZM10.3688 8.02778C11.0559 8.02778 11.7226 7.76841 12.218 7.29486L11.1816 6.21052C10.974 6.40896 10.682 6.52778 10.3688 6.52778V8.02778ZM6.56558 7.00323C4.7811 7.59055 3.45417 9.06763 3.14873 10.8772L4.6278 11.1268C4.83485 9.90021 5.74497 8.85247 7.03452 8.42805L6.56558 7.00323ZM12.8267 6.71303C14.0319 5.56111 16.0017 5.88877 16.7931 7.15106L18.064 6.35432C16.7763 4.3003 13.6933 3.80978 11.7903 5.62869L12.8267 6.71303ZM18.6807 3.96967L6.26742 16.3829L7.32808 17.4436L19.7413 5.03033L18.6807 3.96967ZM6.26742 16.3829L3.96966 18.6807L5.03031 19.7413L7.32808 17.4436L6.26742 16.3829Z" fill="#363853"/>
<path d="M10.3689 17.3518C10.869 17.3518 11.3483 17.5409 11.6998 17.8769L12.3086 18.4587C14.1034 20.1743 17.1952 19.3628 17.7955 17.0186C18.3679 14.7834 18.5264 12.4782 18.271 10.2042" stroke="#0095FF" stroke-width="1.5" stroke-linecap="round"/>
</svg>
